<svg class="svg-icon" style="width: 1.2744140625em; height: 1em;vertical-align: middle;fill: currentColor;overflow: hidden;" viewBox="0 0 1305 1024" version="1.1" xmlns="http://www.w3.org/2000/svg"><path d="M411.084933 162.666667l2.666667-2.666667c10.666667-6.666667 24-26.666667 20-32s-2.666667-12 1.333333-33.333333 18.666667-12 38.666667-12 45.333333-5.333333 56 22.666666 12 25.333333 30.666667 25.333334 14.666667-9.333333 17.333333-24-6.666667-20-1.333333-30.666667 0-13.333333-16-16 1.333333-16 16-16 18.666667-10.666667 30.666666-26.666667c6.666667-9.333333 13.333333-21.333333 14.666667-16 4 9.333333 9.333333 17.333333 17.333333 24l6.666667 6.666667 6.666667 6.666667c14.666667 13.333333 53.333333 10.666667 72 0 8-5.333333 13.333333-13.333333 14.666666-22.666667l2.666667 2.666667c5.333333 1.333333 8 4 12 8 2.666667 4 5.333333 8 5.333333 12 0 10.666667-4 16 16 9.333333s18.666667 1.333333 34.666667-4 26.666667-24 44-13.333333c5.333333 2.666667 10.666667 8 16 12 6.666667 6.666667-2.666667 10.666667 5.333333 16s2.666667 8 0 14.666666-4 10.666667-17.333333 14.666667c-17.333333 5.333333-28 28-33.333333 42.666667s-10.666667 34.666667-20 34.666666-6.666667 4 2.666666 12 18.666667 21.333333 37.333334 17.333334c22.666667-4 45.333333-12 66.666666-20 22.666667-9.333333 41.333333-14.666667 60-21.333334S1000.418267 120 1013.7516 141.333333c9.333333 14.666667 24 28 40 36 5.333333 1.333333 13.333333 4 14.666667-1.333333s-2.666667-14.666667-2.666667-21.333333c0-18.666667-2.666667-42.666667 9.333333-46.666667 4-1.333333 8-4 8-8l2.666667 1.333333c4 1.333333 21.333333 10.666667 25.333333 12 10.666667 2.666667 22.666667-2.666667 28 4s13.333333 12 16 2.666667 22.666667-17.333333 21.333334-6.666667-9.333333 16 2.666666 21.333334 5.333333 24 22.666667 17.333333c10.666667-4 22.666667-6.666667 34.666667-8 14.666667 1.333333-10.666667 17.333333 9.333333 32 8 8 14.666667 18.666667 17.333333 30.666667 5.333333 12 22.666667 30.666667 13.333334 37.333333s-8 8 2.666666 26.666667 14.666667 17.333333 18.666667 34.666666c1.333333 5.333333 4 10.666667 6.666667 16-1.333333 0-1.333333 0-2.666667-1.333333s-4-1.333333-6.666667 2.666667-6.666667 1.333333-8-2.666667-6.666667-2.666667-6.666666 5.333333v17.333334c0 5.333333-1.333333 12-6.666667 16-5.333333 5.333333-8 5.333333-8 8s-1.333333 10.666667-8 9.333333c-5.333333-1.333333-9.333333-1.333333-14.666667-1.333333-4 1.333333-9.333333 0-13.333333-2.666667-4-2.666667-4-1.333333-8-5.333333s-5.333333-4-4 2.666666 5.333333 16 13.333333 13.333334 9.333333-5.333333 16-5.333334 10.666667 0 12 5.333334 1.333333 6.666667 5.333334 9.333333 4 2.666667 2.666666 5.333333-5.333333 5.333333-8 0c-1.333333-2.666667-5.333333-4-8-2.666666-5.333333 1.333333-9.333333 5.333333-10.666666 10.666666-1.333333 6.666667-6.666667 9.333333-8 1.333334s1.333333-13.333333-5.333334-13.333334-4 6.666667-4 6.666667c-1.333333 1.333333-2.666667 2.666667-1.333333 4 0 2.666667 0 4 5.333333 2.666667s10.666667 0 5.333334 6.666666-8 6.666667-5.333334 13.333334c2.666667 6.666667 1.333333 5.333333 2.666667 10.666666s0 9.333333-4 10.666667-9.333333-2.666667-9.333333 4 1.333333 6.666667-5.333334 9.333333c-4 1.333333-9.333333 1.333333-13.333333 2.666667-2.666667 0-4 0-8-2.666667s-10.666667-6.666667-10.666667-1.333333-2.666667 5.333333-6.666666 6.666667c-4 1.333333-8 5.333333-9.333334 9.333333-2.666667 4-5.333333 8-9.333333 12-2.666667 2.666667-9.333333 1.333333-6.666667-4s12-10.666667 4-9.333333-5.333333 0-8-1.333334-2.666667-1.333333-5.333333-1.333333 0 12 1.333333 13.333333 1.333333 4-2.666666 4-4 0-8 2.666667-8 5.333333-13.333334 6.666667c-4 0-5.333333 1.333333-10.666666 6.666666s-10.666667 10.666667-10.666667 0-1.333333-14.666667-9.333333-14.666666-8 0-9.333334-2.666667 1.333333-8 5.333334-12 8-6.666667 2.666666-8c-5.333333 0-10.666667 4-12 9.333333-1.333333 5.333333-2.666667 10.666667-8 10.666667s-10.666667-9.333333-14.666666-9.333333-4 2.666667-2.666667 5.333333 1.333333 4 1.333333 6.666667 0 2.666667 4 1.333333c1.333333 0 2.666667 1.333333 4 4s-9.333333 9.333333-8 12 9.333333 1.333333 12 1.333333 0 2.666667 0 2.666667c-2.666667 2.666667-4 2.666667-2.666666 8s-1.333333 6.666667-5.333334 4c-5.333333-4-10.666667-5.333333-17.333333-4-6.666667 2.666667-9.333333 2.666667-13.333333 0-14.666667-12-1.333333-8-5.333334-16-2.666667-1.333333-5.333333-4-10.666666-1.333333l-5.333334 4s-5.333333-1.333333-1.333333-4c6.666667-2.666667 5.333333-6.666667 10.666667-10.666667 2.666667-1.333333 2.666667-6.666667-1.333334-5.333333-1.333333 0-18.666667 10.666667-18.666666 13.333333s-1.333333 5.333333-4 4-5.333333-2.666667-9.333334-1.333333-6.666667 2.666667-9.333333 0c-6.666667-4-5.333333 9.333333-2.666667 12s2.666667 4-1.333333 8-8 4-9.333333 0-1.333333-1.333333-2.666667-5.333334-2.666667-5.333333-5.333333-2.666666-4 1.333333-8 0-4 0-2.666667 2.666666 2.666667 4 6.666667 4c4 1.333333 6.666667 2.666667 9.333333 6.666667 2.666667 2.666667 2.666667 4 0 6.666667-4 2.666667-5.333333 6.666667-5.333333 10.666666 0 5.333333-1.333333 12-2.666667 9.333334-1.333333-1.333333-1.333333-2.666667-1.333333-4-1.333333-4-6.666667-6.666667-12-4h-1.333334c-8 4-12 9.333333-13.333333-1.333334s1.333333-16-2.666667-20c-1.333333-1.333333 2.666667-6.666667 8-9.333333s9.333333-6.666667 6.666667-10.666667-5.333333-6.666667-8-1.333333c-4 12-10.666667 2.666667-18.666667 10.666667-5.333333 4-10.666667 6.666667-17.333333 6.666666-5.333333-1.333333-6.666667 8-9.333333 13.333334s-2.666667 6.666667 5.333333 4 12 0 9.333333 4c-1.333333 4-4 6.666667-9.333333 9.333333-5.333333 2.666667-8 4-5.333333 6.666667s2.666667 1.333333 5.333333 0 4-1.333333 6.666667 1.333333 2.666667 1.333333 5.333333 2.666667 4 4-1.333333 6.666666-9.333333 1.333333-12 6.666667-8 5.333333-6.666667-1.333333 0-16-5.333333-17.333334c-4-1.333333-6.666667-2.666667-10.666667-4-5.333333-2.666667-10.666667-1.333333-14.666667 1.333334-5.333333 2.666667-6.666667 2.666667-10.666666 5.333333-8-1.333333-12-2.666667-16 1.333333s-2.666667 5.333333-10.666667 5.333334c-5.333333 0-9.333333 1.333333-13.333333 4-4-1.333333-10.666667-2.666667-14.666667 1.333333s-2.666667 5.333333-8 6.666667-6.666667 1.333333-4-2.666667c2.666667-1.333333 2.666667-5.333333 0-8-1.333333-1.333333-2.666667-1.333333-4-1.333333-4-1.333333-5.333333 0-9.333333-8s-2.666667-6.666667-5.333334-9.333334-4-4-4-9.333333-1.333333-16-6.666666-13.333333-10.666667 2.666667-13.333334 0-1.333333-6.666667-4-6.666667-2.666667 0-4-6.666667-4-10.666667 0-14.666666c2.666667-2.666667 4-6.666667 2.666667-10.666667 0-4-4-1.333333-6.666667 2.666667s-6.666667 10.666667-8 2.666666c0-5.333333-1.333333-10.666667-2.666666-16 0-4-2.666667-8-5.333334-10.666666-2.666667-2.666667-6.666667 1.333333-2.666666 4 4 5.333333 6.666667 12 4 17.333333s-4 9.333333-1.333334 13.333333 4 12 8 12 9.333333 2.666667 10.666667 6.666667c2.666667 8-8 9.333333-2.666667 16 6.666667 4 8 10.666667 4 12s-8-1.333333-10.666666-9.333333c-2.666667-6.666667-8-10.666667-14.666667-10.666667-6.666667-1.333333-13.333333-4-18.666667-8-4-2.666667-9.333333-4-9.333333-2.666667 2.666667 4 5.333333 9.333333 9.333333 12 4 2.666667 4 2.666667 10.666667 4 4 1.333333 8 2.666667 10.666667 6.666667 4 4 8 9.333333 10.666666 14.666667 0 6.666667 1.333333 5.333333 5.333334 6.666666s2.666667 4 2.666666 10.666667-1.333333 5.333333-4 14.666667 2.666667 10.666667 8 13.333333 4 4 2.666667 8 1.333333 5.333333-2.666667 6.666667-2.666667 4 0 6.666666 2.666667 4 0 5.333334 0 4-4 8-9.333333 4-16 4-20-20-20-25.333334c-4-4-10.666667-13.333333-17.333333-13.333333s-1.333333 5.333333 2.666667 9.333333 4 5.333333 5.333333 10.666667c1.333333 4 4 8 6.666667 10.666667 4 2.666667 2.666667 13.333333-1.333334 17.333333-2.666667 2.666667-4 6.666667-5.333333 9.333333-5.333333 13.333333-10.666667 16-13.333333 17.333334s-1.333333 1.333333-5.333334 4-4 1.333333-4-2.666667c0-4 1.333333-6.666667 2.666667-10.666667 2.666667-5.333333-1.333333-6.666667-4-4s-1.333333 1.333333-6.666667 2.666667-6.666667-10.666667-6.666666-18.666667 5.333333-10.666667 8-13.333333c2.666667-1.333333 4-5.333333 2.666666-9.333333-1.333333-4 1.333333-5.333333-2.666666 1.333333s0 2.666667-5.333334 6.666667-4 0-2.666666-6.666667c0-6.666667-2.666667-13.333333-5.333334-20 0-8-2.666667-12-6.666666-12s-2.666667 4 1.333333 12 1.333333 8 2.666667 20c1.333333 9.333333-2.666667 18.666667-8 25.333333-4 4-4 9.333333-1.333334 14.666667 2.666667 8 2.666667 14.666667 1.333334 22.666667-4 4-2.666667 4-6.666667 9.333333-2.666667 4-6.666667 8-12 8-5.333333 1.333333-6.666667-4-6.666667-9.333333 0-4-2.666667-8-5.333333-10.666667-2.666667-1.333333-4 0-9.333333 2.666667s-5.333333 1.333333-6.666667 5.333333-4 5.333333-10.666667 9.333333-6.666667 10.666667-9.333333 17.333334-13.333333 8-18.666667 4-8-8-14.666666-9.333334-6.666667-8-6.666667-13.333333 5.333333-6.666667 10.666667-9.333333 4-4 4-6.666667-2.666667-4-4 0-4 0-9.333334 2.666667-6.666667-2.666667-6.666666-6.666667c-1.333333-2.666667 0-6.666667 1.333333-9.333333 1.333333-2.666667 0-5.333333-4-2.666667s-2.666667 6.666667-2.666667 13.333333 5.333333 9.333333 6.666667 17.333334c2.666667 8 2.666667 16 2.666667 24-1.333333 6.666667-1.333333 4-6.666667 6.666666-5.333333 1.333333-9.333333 4-14.666667 6.666667-6.666667 4-8 1.333333-9.333333-1.333333s-1.333333-5.333333-4-4-4 0-4-4c2.666667-9.333333 2.666667-12-5.333333-9.333334-5.333333 0-10.666667 0-14.666667 1.333334-6.666667 1.333333-9.333333 1.333333-10.666667-1.333334s-1.333333-4-5.333333-4h-6.666667c-4 0-5.333333 6.666667-1.333333 8s6.666667 5.333333 2.666667 8c-4 1.333333-8 6.666667-8 10.666667 0 4-1.333333 8 6.666666 6.666667s8 1.333333 8 4-2.666667 5.333333-8 6.666666c-5.333333 0-9.333333 1.333333-13.333333 5.333334-5.333333 5.333333-10.666667 4-12 5.333333s-5.333333 1.333333-1.333333-4c1.333333-2.666667 4-5.333333 5.333333-6.666667 1.333333-2.666667 1.333333-4 1.333333-6.666666s-1.333333-2.666667 2.666667-1.333334 8 0 6.666667-4-5.333333-2.666667-8-2.666666c-2.666667 0-5.333333-1.333333-6.666667-2.666667-1.333333-2.666667 0-6.666667 1.333333-8 2.666667-4-12-9.333333-13.333333-6.666667-1.333333 2.666667-4 4-6.666667 2.666667-2.666667 0-2.666667 0-5.333333-2.666667s-1.333333 2.666667 0 5.333334 1.333333 6.666667 8 4 6.666667 0 8 4-4 16-6.666667 16-12 1.333333-12 9.333333-16 10.666667-20 10.666667c-9.333333 0-18.666667-2.666667-20-12-1.333333-5.333333 0-5.333333-4-2.666667-8 10.666667-9.333333 5.333333-14.666666 9.333333-2.666667 1.333333-4 4-4 6.666667-1.333333 2.666667 1.333333 4 4 0 1.333333-2.666667 5.333333-2.666667 6.666666-1.333333 2.666667 1.333333 1.333333 2.666667-4 6.666666s-6.666667 4-10.666666 8-10.666667 4-8 0 8-10.666667 1.333333-10.666666c-4 0-4-1.333333-6.666667-4-13.333333-4-2.666667 5.333333-6.666666 9.333333-6.666667 2.666667-6.666667 0-13.333334 2.666667s-6.666667 1.333333-5.333333-1.333334c5.333333-9.333333-8-6.666667-6.666667-1.333333 0 2.666667 1.333333 6.666667-5.333333 6.666667s-16 0-20 5.333333c-2.666667 4-8 6.666667-13.333333 5.333333-5.333333-1.333333-9.333333-2.666667-13.333334 0-6.666667 4-12 9.333333-14.666666 16-1.333333 2.666667-8 2.666667-10.666667 24-1.333333 5.333333-2.666667 9.333333-5.333333 13.333334-2.666667 4-10.666667 8-12 1.333333 0-2.666667-1.333333-4-1.333334-6.666667s-1.333333-1.333333-2.666666-2.666666-4 2.666667-4 2.666666c-1.333333 1.333333-4 0-4-1.333333-1.333333-2.666667-1.333333-6.666667 5.333333-6.666667 4 0 9.333333 0 13.333333-1.333333 5.333333 0 6.666667-2.666667 6.666667-8s-4-4-5.333333-1.333333c-1.333333 2.666667-5.333333 4-8 2.666666-4-1.333333-8 0-9.333334 2.666667s-2.666667 4-2.666666 0c0-1.333333-1.333333-10.666667-1.333334-10.666667 13.333333-1.333333-1.333333-9.333333-2.666666-16 0-2.666667-1.333333-4-4-8-2.666667-9.333333-10.666667-10.666667-8-4 1.333333 4 2.666667 8 5.333333 10.666667 1.333333 1.333333 1.333333 2.666667 1.333333 5.333333s0 2.666667-2.666666 1.333334-4 0-4 2.666666c0 4 1.333333 6.666667 5.333333 9.333334 5.333333 2.666667 4 5.333333 4 10.666666s0 6.666667-5.333333 12-6.666667 5.333333-9.333334 6.666667 0 5.333333 4 5.333333 6.666667 0 9.333334 2.666667 4 2.666667 12 1.333333 13.333333-1.333333 13.333333 5.333334-1.333333 10.666667-1.333333 14.666666-2.666667 9.333333-5.333334 4-8-14.666667-14.666666-12-12 0-17.333334 4c-2.666667 1.333333-4 2.666667-6.666666 4-2.666667 1.333333-6.666667 0 0-8 1.333333-2.666667 4-5.333333 6.666666-8 0 0 2.666667-4-1.333333-4s-2.666667-1.333333-1.333333-5.333333-4-8-8-1.333333c-1.333333 2.666667-2.666667 5.333333-5.333334 9.333333-1.333333 2.666667-4 5.333333-8 8-2.666667 1.333333-4 2.666667-9.333333-1.333333s-8 1.333333-2.666667 8c4 4 6.666667 10.666667 8 16 0 6.666667-2.666667 12 4 10.666666s6.666667-1.333333 8 0 5.333333 1.333333 10.666667 1.333334 8-1.333333 12 4 1.333333 8 2.666667 12v6.666666c0 1.333333-6.666667 2.666667-6.666667 0s-4-17.333333-8 5.333334c-8 8 6.666667 10.666667 9.333333 6.666666s6.666667-2.666667 8 4 0 9.333333 8 9.333334c6.666667 0 12 4 13.333334 10.666666 2.666667 8 4 12-2.666667 18.666667s-8 8-8 12-2.666667 6.666667-8 8c-5.333333 0-9.333333 2.666667-13.333333 6.666667-4 4-5.333333 6.666667-10.666667 4s-6.666667-2.666667-10.666667 0c-5.333333 4-12 4-17.333333 1.333333-5.333333-2.666667-8-8-14.666667-6.666667h-12c-2.666667 0-6.666667 1.333333-8 4-2.666667 4-8 8-6.666666 0s2.666667-9.333333-2.666667-16-8-12 0-12 10.666667 1.333333 12 6.666667 1.333333 8 5.333333 5.333333c0 0 5.333333-20 0-17.333333-2.666667 0-2.666667 2.666667-6.666666-4 0-4-1.333333-8-4-10.666667 0 0-4-2.666667-2.666667 4s0 10.666667-2.666667 8-4-8-10.666666-8-6.666667-1.333333-6.666667-5.333333c-1.333333-4-1.333333-9.333333-1.333333-13.333333 0-2.666667-1.333333-5.333333-6.666667-6.666667s-8-6.666667-2.666667-8 8 0 13.333334-2.666667 5.333333-4 4-4c-2.666667-1.333333-6.666667-1.333333-9.333334 0-4 1.333333-8 2.666667-10.666666-1.333333l-2.666667-5.333333c-1.333333-1.333333 5.333333-5.333333 5.333333-8s-8-10.666667-9.333333-12-1.333333 1.333333-1.333333 4-1.333333 4-1.333334 2.666666-1.333333-1.333333-2.666666-2.666666c-5.333333-8-5.333333-17.333333-2.666667-25.333334 5.333333-6.666667 8-16 6.666667-24-2.666667-8-4-6.666667-1.333334-12s6.666667-9.333333 8-4 2.666667 4 4-1.333333 0-6.666667 1.333334-9.333333c1.333333-4 2.666667-8 1.333333-12-1.333333-5.333333-4-10.666667 2.666667-12s10.666667 0 16 0h8c4-5.333333-5.333333-6.666667 0-12 1.333333-1.333333 1.333333-13.333333-4-12s-18.666667 8-17.333334 1.333333c0-6.666667 0-8-2.666666-12l-2.666667-2.666667c12-5.333333 22.666667-14.666667 28-26.666666 20-33.333333 25.333333-21.333333 58.666667-24 8 0 14.666667-9.333333 17.333333-10.666667 6.666667-2.666667 16-8 14.666667-13.333333-1.333333-2.666667-8-6.666667-8-9.333334 1.333333-4 1.333333-8 0-12-1.333333-1.333333-5.333333-2.666667-4-6.666666 2.666667-9.333333 8-16 14.666666-6.666667s10.666667 8 21.333334 1.333333c2.666667-1.333333 5.333333 0 9.333333-1.333333 6.666667-2.666667 12-6.666667 16-12 2.666667-6.666667 2.666667-14.666667-1.333333-21.333333-2.666667-8 6.666667-6.666667 6.666666-9.333334 0-1.333333-6.666667-14.666667 0-21.333333 10.666667-10.666667 24-20 38.666667-26.666667 4-2.666667 5.333333-6.666667 5.333333-10.666666 1.333333-10.666667 8-8 17.333334-6.666667s18.666667 0 21.333333-4c6.666667-8 12-20 22.666667-34.666667 20-26.666667-2.666667-54.666667-2.666667-73.333333 4-21.333333 14.666667-41.333333 30.666667-56 10.666667-5.333333 16-14.666667 17.333333-26.666667 0-12 9.333333-12 21.333333-12s12-18.666667 21.333334-25.333333 5.333333-10.666667-2.666667-30.666667 6.666667-24 16-28 14.666667-26.666667 6.666667-40-5.333333-25.333333-13.333334-33.333333c-4-6.666667 8-22.666667 16-29.333333z" fill="#436379" /></svg>